<mxfile host="app.diagrams.net" modified="2023-12-18T13:34:19.187Z" agent="Mozilla/5.0 (X11; Ubuntu; Linux x86_64; rv:109.0) Gecko/20100101 Firefox/116.0" etag="g-6PL71EOTIJyPwwl0vD" version="22.1.11" type="github">
  <diagram name="第 1 页" id="IQU6jFRGpec_LWGkQjYb">
    <mxGraphModel dx="1343" dy="903" grid="1" gridSize="10" guides="1" tooltips="1" connect="1" arrows="1" fold="1" page="1" pageScale="1" pageWidth="827" pageHeight="1169" math="1" shadow="0">
      <root>
        <mxCell id="0" />
        <mxCell id="1" parent="0" />
        <mxCell id="wRPZgvR5wdqnLo2mRGHW-98" value="&amp;nbsp;" style="text;whiteSpace=wrap;html=1;" vertex="1" parent="1">
          <mxGeometry x="1310" y="190" width="40" height="40" as="geometry" />
        </mxCell>
        <mxCell id="wRPZgvR5wdqnLo2mRGHW-1" value="&amp;nbsp;" style="text;whiteSpace=wrap;html=1;shadow=1;" vertex="1" parent="1">
          <mxGeometry x="160" y="70" width="40" height="40" as="geometry" />
        </mxCell>
        <mxCell id="wRPZgvR5wdqnLo2mRGHW-9" style="edgeStyle=orthogonalEdgeStyle;rounded=0;orthogonalLoop=1;jettySize=auto;html=1;entryX=0;entryY=0.5;entryDx=0;entryDy=0;shadow=1;" edge="1" parent="1" source="wRPZgvR5wdqnLo2mRGHW-2" target="wRPZgvR5wdqnLo2mRGHW-3">
          <mxGeometry relative="1" as="geometry" />
        </mxCell>
        <mxCell id="wRPZgvR5wdqnLo2mRGHW-2" value="" style="html=1;shape=mxgraph.basic.isocube;isoAngle=15;flipH=1;flipV=0;fillColor=#d5e8d4;strokeColor=#82b366;shadow=1;" vertex="1" parent="1">
          <mxGeometry x="40" y="40" width="40" height="50" as="geometry" />
        </mxCell>
        <mxCell id="wRPZgvR5wdqnLo2mRGHW-13" style="edgeStyle=orthogonalEdgeStyle;rounded=0;orthogonalLoop=1;jettySize=auto;html=1;entryX=0;entryY=0;entryDx=0;entryDy=0;shadow=1;" edge="1" parent="1" target="wRPZgvR5wdqnLo2mRGHW-40">
          <mxGeometry relative="1" as="geometry">
            <mxPoint x="370" y="65" as="targetPoint" />
            <mxPoint x="270" y="64.75" as="sourcePoint" />
            <Array as="points">
              <mxPoint x="316" y="65" />
            </Array>
          </mxGeometry>
        </mxCell>
        <mxCell id="wRPZgvR5wdqnLo2mRGHW-3" value="巻积神经网络" style="rounded=1;whiteSpace=wrap;html=1;fillColor=#dae8fc;strokeColor=#6c8ebf;shadow=1;" vertex="1" parent="1">
          <mxGeometry x="160" y="35" width="120" height="60" as="geometry" />
        </mxCell>
        <mxCell id="wRPZgvR5wdqnLo2mRGHW-43" style="edgeStyle=orthogonalEdgeStyle;rounded=0;orthogonalLoop=1;jettySize=auto;html=1;entryX=0;entryY=0;entryDx=0;entryDy=0;shadow=1;" edge="1" parent="1" source="wRPZgvR5wdqnLo2mRGHW-23" target="wRPZgvR5wdqnLo2mRGHW-31">
          <mxGeometry relative="1" as="geometry">
            <Array as="points">
              <mxPoint x="350" y="160" />
              <mxPoint x="350" y="160" />
            </Array>
          </mxGeometry>
        </mxCell>
        <mxCell id="wRPZgvR5wdqnLo2mRGHW-23" value="全连接神经网络" style="rounded=1;whiteSpace=wrap;html=1;fillColor=#dae8fc;strokeColor=#6c8ebf;shadow=1;" vertex="1" parent="1">
          <mxGeometry x="160" y="130" width="120" height="60" as="geometry" />
        </mxCell>
        <mxCell id="wRPZgvR5wdqnLo2mRGHW-25" style="edgeStyle=orthogonalEdgeStyle;rounded=0;orthogonalLoop=1;jettySize=auto;html=1;exitX=1;exitY=0;exitDx=0;exitDy=0;entryX=0;entryY=0.5;entryDx=0;entryDy=0;shadow=1;" edge="1" parent="1" source="wRPZgvR5wdqnLo2mRGHW-18" target="wRPZgvR5wdqnLo2mRGHW-23">
          <mxGeometry relative="1" as="geometry">
            <Array as="points">
              <mxPoint x="90" y="160" />
              <mxPoint x="90" y="160" />
            </Array>
          </mxGeometry>
        </mxCell>
        <mxCell id="wRPZgvR5wdqnLo2mRGHW-35" value="" style="group;fillColor=#f8cecc;strokeColor=#b85450;shadow=1;" vertex="1" connectable="0" parent="1">
          <mxGeometry x="380" y="130" width="10" height="60" as="geometry" />
        </mxCell>
        <mxCell id="wRPZgvR5wdqnLo2mRGHW-28" value="" style="rounded=0;whiteSpace=wrap;html=1;fillColor=#f8cecc;strokeColor=#b85450;shadow=1;" vertex="1" parent="wRPZgvR5wdqnLo2mRGHW-35">
          <mxGeometry width="10" height="10" as="geometry" />
        </mxCell>
        <mxCell id="wRPZgvR5wdqnLo2mRGHW-29" value="" style="rounded=0;whiteSpace=wrap;html=1;fillColor=#f8cecc;strokeColor=#b85450;shadow=1;" vertex="1" parent="wRPZgvR5wdqnLo2mRGHW-35">
          <mxGeometry y="10" width="10" height="10" as="geometry" />
        </mxCell>
        <mxCell id="wRPZgvR5wdqnLo2mRGHW-30" value="" style="rounded=0;whiteSpace=wrap;html=1;fillColor=#f8cecc;strokeColor=#b85450;shadow=1;" vertex="1" parent="wRPZgvR5wdqnLo2mRGHW-35">
          <mxGeometry y="20" width="10" height="10" as="geometry" />
        </mxCell>
        <mxCell id="wRPZgvR5wdqnLo2mRGHW-95" style="edgeStyle=orthogonalEdgeStyle;rounded=0;orthogonalLoop=1;jettySize=auto;html=1;exitX=1;exitY=0;exitDx=0;exitDy=0;shadow=1;" edge="1" parent="wRPZgvR5wdqnLo2mRGHW-35" source="wRPZgvR5wdqnLo2mRGHW-31">
          <mxGeometry relative="1" as="geometry">
            <mxPoint x="120" y="-10" as="targetPoint" />
            <Array as="points">
              <mxPoint x="60" y="30" />
              <mxPoint x="60" y="-10" />
            </Array>
          </mxGeometry>
        </mxCell>
        <mxCell id="wRPZgvR5wdqnLo2mRGHW-31" value="" style="rounded=0;whiteSpace=wrap;html=1;fillColor=#f8cecc;strokeColor=#b85450;shadow=1;" vertex="1" parent="wRPZgvR5wdqnLo2mRGHW-35">
          <mxGeometry y="30" width="10" height="10" as="geometry" />
        </mxCell>
        <mxCell id="wRPZgvR5wdqnLo2mRGHW-32" value="" style="rounded=0;whiteSpace=wrap;html=1;fillColor=#f8cecc;strokeColor=#b85450;shadow=1;" vertex="1" parent="wRPZgvR5wdqnLo2mRGHW-35">
          <mxGeometry y="40" width="10" height="10" as="geometry" />
        </mxCell>
        <mxCell id="wRPZgvR5wdqnLo2mRGHW-33" value="" style="rounded=0;whiteSpace=wrap;html=1;fillColor=#f8cecc;strokeColor=#b85450;shadow=1;" vertex="1" parent="wRPZgvR5wdqnLo2mRGHW-35">
          <mxGeometry y="50" width="10" height="10" as="geometry" />
        </mxCell>
        <mxCell id="wRPZgvR5wdqnLo2mRGHW-36" value="" style="group;fillColor=#d5e8d4;strokeColor=#82b366;shadow=1;" vertex="1" connectable="0" parent="1">
          <mxGeometry x="380" y="35" width="10" height="60" as="geometry" />
        </mxCell>
        <mxCell id="wRPZgvR5wdqnLo2mRGHW-37" value="" style="rounded=0;whiteSpace=wrap;html=1;fillColor=#d5e8d4;strokeColor=#82b366;shadow=1;" vertex="1" parent="wRPZgvR5wdqnLo2mRGHW-36">
          <mxGeometry width="10" height="10" as="geometry" />
        </mxCell>
        <mxCell id="wRPZgvR5wdqnLo2mRGHW-38" value="" style="rounded=0;whiteSpace=wrap;html=1;fillColor=#d5e8d4;strokeColor=#82b366;shadow=1;" vertex="1" parent="wRPZgvR5wdqnLo2mRGHW-36">
          <mxGeometry y="10" width="10" height="10" as="geometry" />
        </mxCell>
        <mxCell id="wRPZgvR5wdqnLo2mRGHW-39" value="" style="rounded=0;whiteSpace=wrap;html=1;fillColor=#d5e8d4;strokeColor=#82b366;shadow=1;" vertex="1" parent="wRPZgvR5wdqnLo2mRGHW-36">
          <mxGeometry y="20" width="10" height="10" as="geometry" />
        </mxCell>
        <mxCell id="wRPZgvR5wdqnLo2mRGHW-40" value="" style="rounded=0;whiteSpace=wrap;html=1;fillColor=#d5e8d4;strokeColor=#82b366;shadow=1;" vertex="1" parent="wRPZgvR5wdqnLo2mRGHW-36">
          <mxGeometry y="30" width="10" height="10" as="geometry" />
        </mxCell>
        <mxCell id="wRPZgvR5wdqnLo2mRGHW-41" value="" style="rounded=0;whiteSpace=wrap;html=1;fillColor=#d5e8d4;strokeColor=#82b366;shadow=1;" vertex="1" parent="wRPZgvR5wdqnLo2mRGHW-36">
          <mxGeometry y="40" width="10" height="10" as="geometry" />
        </mxCell>
        <mxCell id="wRPZgvR5wdqnLo2mRGHW-42" value="" style="rounded=0;whiteSpace=wrap;html=1;fillColor=#d5e8d4;strokeColor=#82b366;shadow=1;" vertex="1" parent="wRPZgvR5wdqnLo2mRGHW-36">
          <mxGeometry y="50" width="10" height="10" as="geometry" />
        </mxCell>
        <mxCell id="wRPZgvR5wdqnLo2mRGHW-100" style="edgeStyle=orthogonalEdgeStyle;rounded=0;orthogonalLoop=1;jettySize=auto;html=1;entryX=0;entryY=0.5;entryDx=0;entryDy=0;shadow=1;" edge="1" parent="1" source="wRPZgvR5wdqnLo2mRGHW-65" target="wRPZgvR5wdqnLo2mRGHW-99">
          <mxGeometry relative="1" as="geometry" />
        </mxCell>
        <mxCell id="wRPZgvR5wdqnLo2mRGHW-65" value="全连接神经网络" style="rounded=1;whiteSpace=wrap;html=1;fillColor=#dae8fc;strokeColor=#6c8ebf;shadow=1;" vertex="1" parent="1">
          <mxGeometry x="600" y="90" width="120" height="60" as="geometry" />
        </mxCell>
        <mxCell id="wRPZgvR5wdqnLo2mRGHW-82" value="" style="group;shadow=1;" vertex="1" connectable="0" parent="1">
          <mxGeometry x="55" y="120" width="10" height="80" as="geometry" />
        </mxCell>
        <mxCell id="wRPZgvR5wdqnLo2mRGHW-22" value="" style="group;fillColor=#f8cecc;strokeColor=#b85450;container=0;shadow=1;" vertex="1" connectable="0" parent="wRPZgvR5wdqnLo2mRGHW-82">
          <mxGeometry width="10" height="80" as="geometry" />
        </mxCell>
        <mxCell id="wRPZgvR5wdqnLo2mRGHW-14" value="" style="rounded=0;whiteSpace=wrap;html=1;fillColor=#f8cecc;strokeColor=#b85450;shadow=1;" vertex="1" parent="wRPZgvR5wdqnLo2mRGHW-82">
          <mxGeometry width="10" height="10" as="geometry" />
        </mxCell>
        <mxCell id="wRPZgvR5wdqnLo2mRGHW-15" value="" style="rounded=0;whiteSpace=wrap;html=1;fillColor=#f8cecc;strokeColor=#b85450;shadow=1;" vertex="1" parent="wRPZgvR5wdqnLo2mRGHW-82">
          <mxGeometry y="10" width="10" height="10" as="geometry" />
        </mxCell>
        <mxCell id="wRPZgvR5wdqnLo2mRGHW-16" value="" style="rounded=0;whiteSpace=wrap;html=1;fillColor=#f8cecc;strokeColor=#b85450;shadow=1;" vertex="1" parent="wRPZgvR5wdqnLo2mRGHW-82">
          <mxGeometry y="20" width="10" height="10" as="geometry" />
        </mxCell>
        <mxCell id="wRPZgvR5wdqnLo2mRGHW-17" value="" style="rounded=0;whiteSpace=wrap;html=1;fillColor=#f8cecc;strokeColor=#b85450;shadow=1;" vertex="1" parent="wRPZgvR5wdqnLo2mRGHW-82">
          <mxGeometry y="30" width="10" height="10" as="geometry" />
        </mxCell>
        <mxCell id="wRPZgvR5wdqnLo2mRGHW-18" value="" style="rounded=0;whiteSpace=wrap;html=1;fillColor=#f8cecc;strokeColor=#b85450;shadow=1;" vertex="1" parent="wRPZgvR5wdqnLo2mRGHW-82">
          <mxGeometry y="40" width="10" height="10" as="geometry" />
        </mxCell>
        <mxCell id="wRPZgvR5wdqnLo2mRGHW-19" value="" style="rounded=0;whiteSpace=wrap;html=1;fillColor=#f8cecc;strokeColor=#b85450;shadow=1;" vertex="1" parent="wRPZgvR5wdqnLo2mRGHW-82">
          <mxGeometry y="50" width="10" height="10" as="geometry" />
        </mxCell>
        <mxCell id="wRPZgvR5wdqnLo2mRGHW-20" value="" style="rounded=0;whiteSpace=wrap;html=1;fillColor=#f8cecc;strokeColor=#b85450;shadow=1;" vertex="1" parent="wRPZgvR5wdqnLo2mRGHW-82">
          <mxGeometry y="60" width="10" height="10" as="geometry" />
        </mxCell>
        <mxCell id="wRPZgvR5wdqnLo2mRGHW-21" value="" style="rounded=0;whiteSpace=wrap;html=1;fillColor=#f8cecc;strokeColor=#b85450;shadow=1;" vertex="1" parent="wRPZgvR5wdqnLo2mRGHW-82">
          <mxGeometry y="70" width="10" height="10" as="geometry" />
        </mxCell>
        <mxCell id="wRPZgvR5wdqnLo2mRGHW-92" value="" style="group;shadow=1;" vertex="1" connectable="0" parent="1">
          <mxGeometry x="500" y="60" width="10" height="120" as="geometry" />
        </mxCell>
        <mxCell id="wRPZgvR5wdqnLo2mRGHW-75" value="" style="group;fillColor=#d5e8d4;strokeColor=#82b366;shadow=1;" vertex="1" connectable="0" parent="wRPZgvR5wdqnLo2mRGHW-92">
          <mxGeometry width="10" height="60" as="geometry" />
        </mxCell>
        <mxCell id="wRPZgvR5wdqnLo2mRGHW-76" value="" style="rounded=0;whiteSpace=wrap;html=1;fillColor=#d5e8d4;strokeColor=#82b366;shadow=1;" vertex="1" parent="wRPZgvR5wdqnLo2mRGHW-75">
          <mxGeometry width="10" height="10" as="geometry" />
        </mxCell>
        <mxCell id="wRPZgvR5wdqnLo2mRGHW-77" value="" style="rounded=0;whiteSpace=wrap;html=1;fillColor=#d5e8d4;strokeColor=#82b366;shadow=1;" vertex="1" parent="wRPZgvR5wdqnLo2mRGHW-75">
          <mxGeometry y="10" width="10" height="10" as="geometry" />
        </mxCell>
        <mxCell id="wRPZgvR5wdqnLo2mRGHW-78" value="" style="rounded=0;whiteSpace=wrap;html=1;fillColor=#d5e8d4;strokeColor=#82b366;shadow=1;" vertex="1" parent="wRPZgvR5wdqnLo2mRGHW-75">
          <mxGeometry y="20" width="10" height="10" as="geometry" />
        </mxCell>
        <mxCell id="wRPZgvR5wdqnLo2mRGHW-79" value="" style="rounded=0;whiteSpace=wrap;html=1;fillColor=#d5e8d4;strokeColor=#82b366;shadow=1;" vertex="1" parent="wRPZgvR5wdqnLo2mRGHW-75">
          <mxGeometry y="30" width="10" height="10" as="geometry" />
        </mxCell>
        <mxCell id="wRPZgvR5wdqnLo2mRGHW-80" value="" style="rounded=0;whiteSpace=wrap;html=1;fillColor=#d5e8d4;strokeColor=#82b366;shadow=1;" vertex="1" parent="wRPZgvR5wdqnLo2mRGHW-75">
          <mxGeometry y="40" width="10" height="10" as="geometry" />
        </mxCell>
        <mxCell id="wRPZgvR5wdqnLo2mRGHW-81" value="" style="rounded=0;whiteSpace=wrap;html=1;fillColor=#d5e8d4;strokeColor=#82b366;shadow=1;" vertex="1" parent="wRPZgvR5wdqnLo2mRGHW-75">
          <mxGeometry y="50" width="10" height="10" as="geometry" />
        </mxCell>
        <mxCell id="wRPZgvR5wdqnLo2mRGHW-83" value="" style="group;fillColor=#f8cecc;strokeColor=#b85450;shadow=1;" vertex="1" connectable="0" parent="wRPZgvR5wdqnLo2mRGHW-92">
          <mxGeometry y="60" width="10" height="60" as="geometry" />
        </mxCell>
        <mxCell id="wRPZgvR5wdqnLo2mRGHW-84" value="" style="rounded=0;whiteSpace=wrap;html=1;fillColor=#f8cecc;strokeColor=#b85450;shadow=1;" vertex="1" parent="wRPZgvR5wdqnLo2mRGHW-83">
          <mxGeometry width="10" height="10" as="geometry" />
        </mxCell>
        <mxCell id="wRPZgvR5wdqnLo2mRGHW-85" value="" style="rounded=0;whiteSpace=wrap;html=1;fillColor=#f8cecc;strokeColor=#b85450;shadow=1;" vertex="1" parent="wRPZgvR5wdqnLo2mRGHW-83">
          <mxGeometry y="10" width="10" height="10" as="geometry" />
        </mxCell>
        <mxCell id="wRPZgvR5wdqnLo2mRGHW-86" value="" style="rounded=0;whiteSpace=wrap;html=1;fillColor=#f8cecc;strokeColor=#b85450;shadow=1;" vertex="1" parent="wRPZgvR5wdqnLo2mRGHW-83">
          <mxGeometry y="20" width="10" height="10" as="geometry" />
        </mxCell>
        <mxCell id="wRPZgvR5wdqnLo2mRGHW-87" value="" style="rounded=0;whiteSpace=wrap;html=1;fillColor=#f8cecc;strokeColor=#b85450;shadow=1;" vertex="1" parent="wRPZgvR5wdqnLo2mRGHW-83">
          <mxGeometry y="30" width="10" height="10" as="geometry" />
        </mxCell>
        <mxCell id="wRPZgvR5wdqnLo2mRGHW-88" value="" style="rounded=0;whiteSpace=wrap;html=1;fillColor=#f8cecc;strokeColor=#b85450;shadow=1;" vertex="1" parent="wRPZgvR5wdqnLo2mRGHW-83">
          <mxGeometry y="40" width="10" height="10" as="geometry" />
        </mxCell>
        <mxCell id="wRPZgvR5wdqnLo2mRGHW-89" value="" style="rounded=0;whiteSpace=wrap;html=1;fillColor=#f8cecc;strokeColor=#b85450;shadow=1;" vertex="1" parent="wRPZgvR5wdqnLo2mRGHW-83">
          <mxGeometry y="50" width="10" height="10" as="geometry" />
        </mxCell>
        <mxCell id="wRPZgvR5wdqnLo2mRGHW-94" style="edgeStyle=orthogonalEdgeStyle;rounded=0;orthogonalLoop=1;jettySize=auto;html=1;exitX=1;exitY=1;exitDx=0;exitDy=0;entryX=0;entryY=0;entryDx=0;entryDy=0;shadow=1;" edge="1" parent="1" source="wRPZgvR5wdqnLo2mRGHW-39" target="wRPZgvR5wdqnLo2mRGHW-84">
          <mxGeometry relative="1" as="geometry">
            <Array as="points">
              <mxPoint x="390" y="70" />
              <mxPoint x="440" y="70" />
              <mxPoint x="440" y="120" />
            </Array>
          </mxGeometry>
        </mxCell>
        <mxCell id="wRPZgvR5wdqnLo2mRGHW-97" style="edgeStyle=orthogonalEdgeStyle;rounded=0;orthogonalLoop=1;jettySize=auto;html=1;entryX=0;entryY=0.5;entryDx=0;entryDy=0;shadow=1;" edge="1" parent="1" source="wRPZgvR5wdqnLo2mRGHW-81" target="wRPZgvR5wdqnLo2mRGHW-65">
          <mxGeometry relative="1" as="geometry">
            <Array as="points">
              <mxPoint x="530" y="120" />
              <mxPoint x="530" y="120" />
            </Array>
          </mxGeometry>
        </mxCell>
        <mxCell id="wRPZgvR5wdqnLo2mRGHW-99" value="" style="ellipse;whiteSpace=wrap;html=1;aspect=fixed;fillColor=#e1d5e7;strokeColor=#9673a6;shadow=1;" vertex="1" parent="1">
          <mxGeometry x="800" y="112.5" width="15" height="15" as="geometry" />
        </mxCell>
        <mxCell id="wRPZgvR5wdqnLo2mRGHW-102" value="`S`" style="text;strokeColor=none;align=center;fillColor=none;html=1;verticalAlign=middle;whiteSpace=wrap;rounded=0;shadow=1;" vertex="1" parent="1">
          <mxGeometry x="30" y="90" width="60" height="30" as="geometry" />
        </mxCell>
        <mxCell id="wRPZgvR5wdqnLo2mRGHW-104" value="特征向量" style="text;strokeColor=none;align=center;fillColor=none;html=1;verticalAlign=middle;whiteSpace=wrap;rounded=0;shadow=1;" vertex="1" parent="1">
          <mxGeometry x="355" y="95" width="60" height="30" as="geometry" />
        </mxCell>
        <mxCell id="wRPZgvR5wdqnLo2mRGHW-105" value="特征向量" style="text;strokeColor=none;align=center;fillColor=none;html=1;verticalAlign=middle;whiteSpace=wrap;rounded=0;shadow=1;" vertex="1" parent="1">
          <mxGeometry x="354" y="190" width="60" height="30" as="geometry" />
        </mxCell>
        <mxCell id="wRPZgvR5wdqnLo2mRGHW-107" value="`a`" style="text;strokeColor=none;align=center;fillColor=none;html=1;verticalAlign=middle;whiteSpace=wrap;rounded=0;shadow=1;" vertex="1" parent="1">
          <mxGeometry x="31" y="200" width="60" height="30" as="geometry" />
        </mxCell>
        <mxCell id="wRPZgvR5wdqnLo2mRGHW-108" value="`q(s,a;w)`" style="text;strokeColor=none;align=center;fillColor=none;html=1;verticalAlign=middle;whiteSpace=wrap;rounded=0;shadow=1;" vertex="1" parent="1">
          <mxGeometry x="777.5" y="130" width="60" height="30" as="geometry" />
        </mxCell>
        <mxCell id="wRPZgvR5wdqnLo2mRGHW-111" value="连接" style="text;strokeColor=none;align=center;fillColor=none;html=1;verticalAlign=middle;whiteSpace=wrap;rounded=0;shadow=1;" vertex="1" parent="1">
          <mxGeometry x="440" y="90" width="60" height="30" as="geometry" />
        </mxCell>
      </root>
    </mxGraphModel>
  </diagram>
</mxfile>
